<svg xmlns="http://www.w3.org/2000/svg" width="128" height="128" viewBox="0 0 128 128">
  <defs><radialGradient id="orb"><stop stop-color="#f5d0fe"/><stop offset=".45" stop-color="#c026d3"/><stop offset="1" stop-color="#3b0764"/></radialGradient></defs>
  <ellipse cx="64" cy="111" rx="30" ry="7" fill="#d946ef" opacity=".2"/>
  <g fill="none" stroke="#e879f9" stroke-width="4">
    <ellipse cx="64" cy="59" rx="48" ry="20" transform="rotate(24 64 59)"/>
    <ellipse cx="64" cy="59" rx="48" ry="20" transform="rotate(-24 64 59)"/>
  </g>
  <path d="M64 9 75 29l-11 9-11-9zM64 109l11-20-11-9-11 9zM14 59l20-11 9 11-9 11zM114 59 94 48l-9 11 9 11z" fill="#67e8f9"/>
  <circle cx="64" cy="59" r="31" fill="url(#orb)" stroke="#f0abfc" stroke-width="4"/>
  <path d="M42 59c10-18 34-18 44 0-10 18-34 18-44 0z" fill="#111827"/>
  <circle cx="64" cy="59" r="11" fill="#22d3ee"/><circle cx="64" cy="59" r="4" fill="#fff"/>
</svg>
