<svg xmlns="http://www.w3.org/2000/svg" width="128" height="128" viewBox="0 0 128 128">
  <defs>
    <linearGradient id="cloak" x1="0" x2="1" y1="0" y2="1">
      <stop offset="0%" stop-color="#111827"/>
      <stop offset="100%" stop-color="#0f172a"/>
    </linearGradient>
  </defs>
  <ellipse cx="64" cy="108" rx="28" ry="10" fill="rgba(0,0,0,0.45)"/>
  <path d="M42 66c8-10 16-14 22-14 8 0 16 4 20 14l-8 26-22 10-16-10z" fill="url(#cloak)"/>
  <path d="M44 68l-14 10-8 18 12 4 10-16z" fill="#111827"/>
  <path d="M84 68l14 10 8 18-12 4-10-16z" fill="#111827"/>
  <path d="M54 66h20" stroke="#a78bfa" stroke-width="4" stroke-linecap="round"/>
  <path d="M46 78l14 10 14 18-10 6-14-12-8-12z" fill="#7c3aed"/>
  <circle cx="64" cy="42" r="19" fill="#f8fafc"/>
  <path d="M46 42c2-12 10-20 18-20 10 0 18 8 20 20-4-4-10-6-18-6-8 0-14 2-20 6z" fill="#e4b797"/>
  <path d="M58 34l-4-10" stroke="#111827" stroke-width="3" stroke-linecap="round"/>
  <path d="M72 34l4-10" stroke="#111827" stroke-width="3" stroke-linecap="round"/>
  <circle cx="58" cy="44" r="2" fill="#111827"/>
  <circle cx="72" cy="44" r="2" fill="#111827"/>
  <path d="M60 52c2 3 6 3 8 0" stroke="#111827" stroke-width="2.5" stroke-linecap="round"/>
  <path d="M96 54l18-10" stroke="#f8fafc" stroke-width="5" stroke-linecap="round"/>
  <path d="M90 58l18 6" stroke="#f8fafc" stroke-width="5" stroke-linecap="round"/>
  <path d="M90 66l18 10" stroke="#7c3aed" stroke-width="4" stroke-linecap="round"/>
</svg>
