<svg xmlns="http://www.w3.org/2000/svg" width="128" height="128" viewBox="0 0 128 128">
  <defs>
    <linearGradient id="plate" x1="0" x2="1" y1="0" y2="1">
      <stop offset="0%" stop-color="#f97316"/>
      <stop offset="100%" stop-color="#7f1d1d"/>
    </linearGradient>
  </defs>
  <ellipse cx="64" cy="108" rx="30" ry="10" fill="rgba(26,9,4,0.48)"/>
  <path d="M38 76c4-18 18-30 26-30 12 0 24 12 26 30l-10 22-18 8-16-8z" fill="url(#plate)"/>
  <path d="M42 74l-16 12-10 16 12 4 12-18z" fill="#111827"/>
  <path d="M86 74l16 12 10 16-12 4-12-18z" fill="#111827"/>
  <rect x="48" y="76" width="32" height="20" rx="8" fill="#fb923c"/>
  <path d="M52 60h24" stroke="#f8fafc" stroke-width="6" stroke-linecap="round"/>
  <circle cx="64" cy="42" r="18" fill="#f8fafc"/>
  <path d="M46 42c2-10 10-16 18-16 10 0 18 6 20 16-4-4-10-6-18-6-10 0-14 2-20 6z" fill="#efb08b"/>
  <path d="M54 34l-6-10" stroke="#111827" stroke-width="3" stroke-linecap="round"/>
  <path d="M74 34l6-10" stroke="#111827" stroke-width="3" stroke-linecap="round"/>
  <circle cx="58" cy="44" r="2" fill="#111827"/>
  <circle cx="72" cy="44" r="2" fill="#111827"/>
  <path d="M60 52c2 4 6 4 8 0" stroke="#111827" stroke-width="2.5" stroke-linecap="round"/>
  <path d="M36 44l-10 10" stroke="#f59e0b" stroke-width="5" stroke-linecap="round"/>
  <path d="M92 44l10 10" stroke="#f59e0b" stroke-width="5" stroke-linecap="round"/>
  <path d="M42 96l-14 8" stroke="#111827" stroke-width="8" stroke-linecap="round"/>
  <path d="M86 96l14 8" stroke="#111827" stroke-width="8" stroke-linecap="round"/>
</svg>
