<svg xmlns="http://www.w3.org/2000/svg" width="128" height="128" viewBox="0 0 128 128">
  <defs><linearGradient id="hide" x2="1" y2="1"><stop stop-color="#d97706"/><stop offset="1" stop-color="#451a03"/></linearGradient></defs>
  <ellipse cx="64" cy="108" rx="44" ry="10" fill="#020617" opacity=".45"/>
  <path d="M25 89 8 104l28-3M103 89l17 15-28-3" fill="#78350f" stroke="#f59e0b" stroke-width="5" stroke-linejoin="round"/>
  <path d="M29 85c0-31 16-51 35-51s35 20 35 51l-13 20H42z" fill="url(#hide)" stroke="#fbbf24" stroke-width="3"/>
  <path d="M43 43 22 13l33 20M85 43l21-30-33 20" fill="#92400e" stroke="#fde68a" stroke-width="4"/>
  <path d="M43 67c7-17 35-17 42 0l-8 27H51z" fill="#292524"/>
  <circle cx="51" cy="65" r="5" fill="#fb7185"/><circle cx="77" cy="65" r="5" fill="#fb7185"/>
  <path d="m48 82 9 12 7-13 7 13 9-12" fill="#fef3c7"/>
  <path d="M34 79 13 72M94 79l21-7" stroke="#f59e0b" stroke-width="7" stroke-linecap="round"/>
</svg>
