<svg xmlns="http://www.w3.org/2000/svg" width="128" height="128" viewBox="0 0 128 128">
  <defs>
    <linearGradient id="cape" x1="0" x2="1" y1="0" y2="1">
      <stop offset="0%" stop-color="#8be9ff"/>
      <stop offset="50%" stop-color="#60a5fa"/>
      <stop offset="100%" stop-color="#1d4ed8"/>
    </linearGradient>
    <linearGradient id="armor" x1="0" x2="1" y1="0" y2="1">
      <stop offset="0%" stop-color="#e2e8f0"/>
      <stop offset="100%" stop-color="#93c5fd"/>
    </linearGradient>
    <linearGradient id="blade" x1="0" x2="0" y1="0" y2="1">
      <stop offset="0%" stop-color="#f8fafc"/>
      <stop offset="100%" stop-color="#94a3b8"/>
    </linearGradient>
  </defs>
  <ellipse cx="64" cy="110" rx="28" ry="10" fill="rgba(8,22,34,0.45)"/>
  <path d="M46 62c8-8 16-12 18-12s10 4 18 12l-8 30-18 12-14-12z" fill="url(#cape)"/>
  <path d="M52 56h24v26H52z" fill="#0f172a"/>
  <path d="M52 57l-8 8-6 20 16 8 10-18z" fill="url(#armor)"/>
  <path d="M76 57l8 8 6 20-16 8-10-18z" fill="#0f172a"/>
  <path d="M60 76h8v24h-8z" fill="#111827"/>
  <path d="M54 88l10 8 10 14-12 8-12-10-8-12z" fill="#dbeafe"/>
  <path d="M74 88l10 8 10 14-12 8-12-10-8-12z" fill="#bfdbfe"/>
  <path d="M70 86l18 18 6 14-10 8-18-16-8-10z" fill="#0f172a"/>
  <path d="M44 88l-10 10-10 16 14 2 12-18z" fill="#93c5fd"/>
  <path d="M44 58l-10-6" stroke="#f8fafc" stroke-width="5" stroke-linecap="round"/>
  <path d="M84 58l10-8" stroke="#f8fafc" stroke-width="5" stroke-linecap="round"/>
  <path d="M52 62c4-10 8-16 14-20 8-4 14-4 18 0 6 6 10 16 12 20-8-4-16-6-24-6-10 0-15 0-20 6z" fill="#f1c4a0"/>
  <circle cx="64" cy="42" r="19" fill="#f8fafc"/>
  <path d="M48 42c2-12 12-22 16-22 10 0 16 10 20 24-4-4-8-6-18-6-10 0-14 2-18 4z" fill="#f1c4a0"/>
  <path d="M58 38l-4-8" stroke="#111827" stroke-width="3" stroke-linecap="round"/>
  <path d="M72 38l4-8" stroke="#111827" stroke-width="3" stroke-linecap="round"/>
  <circle cx="58" cy="44" r="2" fill="#111827"/>
  <circle cx="72" cy="44" r="2" fill="#111827"/>
  <path d="M60 52c2 4 6 4 8 0" stroke="#111827" stroke-width="2.4" stroke-linecap="round"/>
  <path d="M92 78l12 10 10-8" stroke="url(#blade)" stroke-width="5" stroke-linecap="round" fill="none"/>
  <path d="M96 60l20 0" stroke="#f8fafc" stroke-width="4" stroke-linecap="round"/>
</svg>
