<svg xmlns="http://www.w3.org/2000/svg" width="128" height="128" viewBox="0 0 128 128">
  <defs><linearGradient id="robe" x2="0" y2="1"><stop stop-color="#1e1b4b"/><stop offset="1" stop-color="#020617"/></linearGradient></defs>
  <ellipse cx="58" cy="112" rx="34" ry="8" fill="#020617" opacity=".6"/>
  <path d="M35 111c10-28 3-48 15-67h28c12 19 5 39 15 67l-18-8-11 11-11-11z" fill="url(#robe)" stroke="#818cf8" stroke-width="3"/>
  <path d="M44 47c2-24 38-30 45 1L76 64H51z" fill="#0f172a"/>
  <path d="M55 49 62 54M75 49l-7 5" stroke="#f43f5e" stroke-width="5" stroke-linecap="round"/>
  <path d="M83 22c25 9 32 27 29 50-8-12-19-17-35-16z" fill="#cbd5e1" stroke="#f8fafc" stroke-width="3"/>
  <path d="M91 24 67 110" stroke="#78350f" stroke-width="7" stroke-linecap="round"/>
  <path d="M48 69 25 83M80 69l18 13" stroke="#312e81" stroke-width="9" stroke-linecap="round"/>
  <path d="M20 83 8 92M99 82l12 9" stroke="#e0e7ff" stroke-width="5" stroke-linecap="round"/>
</svg>
