<svg xmlns="http://www.w3.org/2000/svg" width="680" height="420" viewBox="0 0 680 420">
  <defs>
    <linearGradient id="bg" x1="0" x2="0" y1="0" y2="1">
      <stop offset="0%" stop-color="#1c4b2f"/>
      <stop offset="50%" stop-color="#163621"/>
      <stop offset="100%" stop-color="#07120b"/>
    </linearGradient>
    <linearGradient id="stone" x1="0" x2="1" y1="0" y2="1">
      <stop offset="0%" stop-color="#66786a"/>
      <stop offset="100%" stop-color="#3a473b"/>
    </linearGradient>
    <linearGradient id="water" x1="0" x2="1" y1="0" y2="1">
      <stop offset="0%" stop-color="#2dd4bf" stop-opacity="0.95"/>
      <stop offset="100%" stop-color="#0f766e" stop-opacity="0.45"/>
    </linearGradient>
    <filter id="soft" x="-20%" y="-20%" width="140%" height="140%">
      <feGaussianBlur stdDeviation="3"/>
    </filter>
  </defs>
  <rect width="680" height="420" fill="url(#bg)"/>
  <ellipse cx="520" cy="84" rx="160" ry="74" fill="#7dff9f" opacity="0.14"/>
  <ellipse cx="180" cy="76" rx="130" ry="52" fill="#67e8f9" opacity="0.10"/>
  <rect x="28" y="30" width="624" height="360" fill="#1c2f20" opacity="0.78"/>
  <rect x="126" y="78" width="136" height="220" rx="18" fill="#334236"/>
  <rect x="432" y="104" width="114" height="158" rx="16" fill="#2f3b2f"/>
  <rect x="270" y="154" width="98" height="152" rx="12" fill="#425045"/>
  <path d="M132 110l34-28 40 28-18 58-40 8-12-24z" fill="#6f7b70" opacity="0.9"/>
  <path d="M438 132l34-18 28 18-12 56-32 14-22-30z" fill="#74807a" opacity="0.9"/>
  <path d="M278 180l32-28 32 28-14 58-38 10-18-28z" fill="#7c877d" opacity="0.95"/>
  <path d="M118 312c96-32 182-38 252-8 44 22 92 22 156-2" fill="none" stroke="#92d299" stroke-width="5" opacity="0.45"/>
  <path d="M124 318c50-12 108-14 150-6 24 4 54 4 84 0" fill="none" stroke="#1d6c42" stroke-width="3" opacity="0.68"/>
  <ellipse cx="164" cy="236" rx="70" ry="22" fill="url(#water)" opacity="0.78"/>
  <ellipse cx="514" cy="254" rx="60" ry="19" fill="url(#water)" opacity="0.7"/>
  <ellipse cx="318" cy="258" rx="48" ry="16" fill="url(#water)" opacity="0.66"/>
  <g fill="#234128" opacity="0.93">
    <path d="M98 148c10 8 18 18 24 30 2 4 6 10 0 18-8 8-18 0-26-4-8-4-10-14-10-26 0-8 2-14 12-18z"/>
    <path d="M564 110c12 4 18 16 18 28 0 8-4 16-12 18-8 2-16-2-20-8-8-10-10-20-8-30 2-8 6-14 22-8z"/>
    <path d="M622 172c12 4 22 18 22 30 0 10-6 16-16 16-10 0-18-6-20-16-4-14-2-24 14-30z"/>
  </g>
  <g stroke="#18391a" stroke-width="5" stroke-linecap="round" fill="none" opacity="0.82">
    <path d="M110 162c8-12 20-20 32-18"/>
    <path d="M610 184c-10 10-18 20-14 30"/>
    <path d="M272 192c14-10 34-16 52-12"/>
  </g>
  <g filter="url(#soft)">
    <path d="M48 92c28 24 38 70 34 112-4 46-28 86-12 122 6 14 30 18 48 10" stroke="#2f6b36" stroke-width="4" fill="none" opacity="0.6"/>
    <path d="M620 108c-26 20-40 50-38 88 2 24 8 44 2 62-8 24-28 30-46 22" stroke="#2f6b36" stroke-width="4" fill="none" opacity="0.6"/>
  </g>
  <g fill="#112a17" opacity="0.94">
    <rect x="72" y="112" width="18" height="78" rx="4"/>
    <rect x="596" y="146" width="16" height="82" rx="4"/>
    <rect x="440" y="182" width="24" height="66" rx="5"/>
    <rect x="166" y="236" width="18" height="56" rx="4"/>
  </g>
  <g fill="#8ccf77" opacity="0.7">
    <path d="M136 260c10 8 24 6 30-2 4-8 0-20-10-24-14-4-20 10-20 26z"/>
    <path d="M560 224c10 4 18 14 18 24 0 10-8 20-20 20-10 0-18-10-18-18 0-10 6-18 20-26z"/>
    <path d="M308 82c10 8 22 10 28 4 6-8 4-18-6-22-10-4-16 6-22 18z"/>
  </g>
  <g fill="#fffbeb" opacity="0.3">
    <circle cx="102" cy="92" r="4"/>
    <circle cx="546" cy="86" r="3"/>
    <circle cx="602" cy="118" r="4"/>
    <circle cx="362" cy="118" r="3"/>
  </g>
  <g fill="#6ee7b7" opacity="0.46">
    <path d="M174 154c18 10 40 10 56-2 10-8 12-20 6-30-6-12-20-20-34-16-18 4-26 16-28 30-2 8 0 14 0 18z"/>
    <path d="M516 170c22 12 38 10 46 2 10-10 10-24 2-34-10-10-26-10-40-2-12 8-18 18-18 28 0 4 2 6 10 6z"/>
  </g>
</svg>
