<svg xmlns="http://www.w3.org/2000/svg" width="128" height="128" viewBox="0 0 128 128">
  <defs><linearGradient id="metal" x2="1" y2="1"><stop stop-color="#cbd5e1"/><stop offset="1" stop-color="#334155"/></linearGradient></defs>
  <ellipse cx="64" cy="111" rx="37" ry="10" fill="#020617" opacity=".5"/>
  <path d="M64 12 99 30v45c0 23-17 36-35 43-18-7-35-20-35-43V30z" fill="url(#metal)" stroke="#f8fafc" stroke-width="4"/>
  <path d="M64 23 88 36v35c0 15-10 25-24 32-14-7-24-17-24-32V36z" fill="#0f172a"/>
  <path d="m64 28 9 19 21 3-15 15 4 22-19-10-19 10 4-22-15-15 21-3z" fill="#f59e0b"/>
  <circle cx="64" cy="57" r="13" fill="#fef3c7" stroke="#f97316" stroke-width="4"/>
  <path d="M57 57h14" stroke="#7f1d1d" stroke-width="5" stroke-linecap="round"/>
  <path d="M28 46 12 57v31l17 9M100 46l16 11v31l-17 9" fill="none" stroke="#64748b" stroke-width="8"/>
</svg>
