<svg xmlns="http://www.w3.org/2000/svg" width="128" height="128" viewBox="0 0 128 128">
  <defs>
    <linearGradient id="robe" x1="0" x2="1" y1="0" y2="1">
      <stop offset="0%" stop-color="#8b5cf6"/>
      <stop offset="100%" stop-color="#312e81"/>
    </linearGradient>
  </defs>
  <ellipse cx="64" cy="108" rx="28" ry="10" fill="rgba(18,11,40,0.45)"/>
  <path d="M44 66c8-10 16-14 20-14s14 4 20 14l-8 24-18 10-14-10z" fill="url(#robe)"/>
  <path d="M42 68l-10 10-8 16 12 4 10-16z" fill="#111827"/>
  <path d="M86 68l10 10 8 16-12 4-10-16z" fill="#111827"/>
  <path d="M54 64h20" stroke="#f8fafc" stroke-width="4" stroke-linecap="round"/>
  <circle cx="64" cy="42" r="19" fill="#f8fafc"/>
  <path d="M46 42c4-12 12-20 18-20 10 0 18 10 20 20-4-4-10-6-18-6-10 0-14 2-20 6z" fill="#f1c4a0"/>
  <path d="M58 34l-4-10" stroke="#111827" stroke-width="3" stroke-linecap="round"/>
  <path d="M72 34l4-10" stroke="#111827" stroke-width="3" stroke-linecap="round"/>
  <circle cx="58" cy="44" r="2" fill="#111827"/>
  <circle cx="72" cy="44" r="2" fill="#111827"/>
  <path d="M60 52c2 3 6 3 8 0" stroke="#111827" stroke-width="2.5" stroke-linecap="round"/>
  <path d="M96 42l12-10" stroke="#22c55e" stroke-width="5" stroke-linecap="round"/>
  <path d="M102 42l12-8" stroke="#a3e635" stroke-width="5" stroke-linecap="round"/>
  <circle cx="96" cy="42" r="6" fill="#22c55e"/>
  <path d="M92 58l16 10" stroke="#60a5fa" stroke-width="4" stroke-linecap="round"/>
</svg>
