<svg xmlns="http://www.w3.org/2000/svg" width="128" height="128" viewBox="0 0 128 128">
  <defs>
    <linearGradient id="fur" x1="0" x2="1" y1="0" y2="1">
      <stop offset="0%" stop-color="#fb923c"/>
      <stop offset="100%" stop-color="#7f1d1d"/>
    </linearGradient>
    <linearGradient id="teeth" x1="0" x2="1" y1="0" y2="1">
      <stop offset="0%" stop-color="#fef3c7"/>
      <stop offset="100%" stop-color="#fcd34d"/>
    </linearGradient>
  </defs>
  <ellipse cx="64" cy="108" rx="28" ry="10" fill="rgba(25,8,6,0.45)"/>
  <path d="M42 74c4-18 18-28 22-28s18 8 22 28l-12 26-18 10-14-10z" fill="url(#fur)"/>
  <path d="M48 74l-14 12-10 14 14 6 10-18z" fill="#111827"/>
  <path d="M80 74l14 12 10 14-14 6-10-18z" fill="#111827"/>
  <path d="M58 62c4-8 10-14 18-14 8 0 14 6 18 14l-6 12-12 8-14-6z" fill="#f59e0b"/>
  <path d="M54 60l-14 2" stroke="#f8fafc" stroke-width="4" stroke-linecap="round"/>
  <path d="M74 60l14 2" stroke="#f8fafc" stroke-width="4" stroke-linecap="round"/>
  <circle cx="64" cy="44" r="18" fill="#f8fafc"/>
  <path d="M46 46c2-10 10-18 18-18 10 0 18 10 18 18-2-4-8-8-18-8-10 0-14 2-18 8z" fill="#efb08b"/>
  <path d="M56 34l-4-10" stroke="#111827" stroke-width="3" stroke-linecap="round"/>
  <path d="M72 34l4-10" stroke="#111827" stroke-width="3" stroke-linecap="round"/>
  <circle cx="58" cy="44" r="2" fill="#111827"/>
  <circle cx="72" cy="44" r="2" fill="#111827"/>
  <path d="M59 52c2 2 8 2 10 0" stroke="#111827" stroke-width="2.5" stroke-linecap="round"/>
  <path d="M54 48l12 8" stroke="#111827" stroke-width="5" stroke-linecap="round"/>
  <path d="M82 50l14-8" stroke="url(#teeth)" stroke-width="6" stroke-linecap="round"/>
  <path d="M42 70l-14 8" stroke="#fca5a5" stroke-width="5" stroke-linecap="round"/>
  <path d="M86 70l14 8" stroke="#fde68a" stroke-width="5" stroke-linecap="round"/>
</svg>
